<svg xmlns="http://www.w3.org/2000/svg" width="600" height="200" viewBox="0 0 600 200">
  <!-- Background -->
  <rect width="600" height="200" fill="#0f0f1e" rx="12"/>
  <!-- Header bar -->
  <rect width="600" height="44" fill="#161630" rx="12"/>
  <rect y="32" width="600" height="12" fill="#161630"/>
  <!-- Header text: Appy Pie Automate -->
  <text x="18" y="28" font-family="Arial, sans-serif" font-size="13" font-weight="bold" fill="#7070ff">⚡ Appy Pie Automate</text>
  <!-- Header title right -->
  <text x="582" y="28" font-family="Arial, sans-serif" font-size="13" font-weight="bold" fill="#ffffff" text-anchor="end">Stripe → Gmail</text>
  <!-- TRIGGER CARD -->
  <rect x="30" y="60" width="230" height="105" rx="10" fill="#1e1e35" stroke="#2e2e55" stroke-width="1"/>
  <text x="50" y="80" font-family="Arial, sans-serif" font-size="9" fill="#4444aa" letter-spacing="1">TRIGGER</text>
  <circle cx="68" cy="115" r="22" fill="#635BFF"/>
  <text x="68" y="120" font-family="Arial, sans-serif" font-size="14" font-weight="bold" fill="#ffffff" text-anchor="middle">S</text>
  <text x="102" y="107" font-family="Arial, sans-serif" font-size="14" font-weight="bold" fill="#ffffff">Stripe</text>
  <text x="102" y="124" font-family="Arial, sans-serif" font-size="11" fill="#9999bb">New Charge</text>
  <!-- ARROW -->
  <line x1="262" y1="112" x2="310" y2="112" stroke="#6060ff" stroke-width="2"/>
  <polygon points="338,112 326,105 326,119" fill="#6060ff"/>
  <circle cx="300" cy="112" r="14" fill="#6060ff"/>
  <text x="300" y="117" font-family="Arial, sans-serif" font-size="14" font-weight="bold" fill="#ffffff" text-anchor="middle">+</text>
  <!-- ACTION CARD -->
  <rect x="340" y="60" width="230" height="105" rx="10" fill="#1e1e35" stroke="#2e2e55" stroke-width="1"/>
  <text x="360" y="80" font-family="Arial, sans-serif" font-size="9" fill="#4444aa" letter-spacing="1">ACTION</text>
  <circle cx="378" cy="115" r="22" fill="#EA4335"/>
  <text x="378" y="120" font-family="Arial, sans-serif" font-size="14" font-weight="bold" fill="#ffffff" text-anchor="middle">G</text>
  <text x="412" y="107" font-family="Arial, sans-serif" font-size="14" font-weight="bold" fill="#ffffff">Gmail</text>
  <text x="412" y="124" font-family="Arial, sans-serif" font-size="11" fill="#9999bb">Send Email</text>
  <!-- Footer -->
  <line x1="0" y1="175" x2="600" y2="175" stroke="#1a1a38" stroke-width="1"/>
  <text x="18" y="191" font-family="Arial, sans-serif" font-size="9" fill="#4444aa">appypieautomate.ai</text>
  <text x="300" y="191" font-family="Arial, sans-serif" font-size="9" fill="#333366" text-anchor="middle">Connect ID: pabfsr5ox5lwxz3wzuv4uyyn</text>
</svg>
